<svg xmlns="http://www.w3.org/2000/svg" viewBox="0 0 1000 230" width="1000" height="230"><rect width="1000" height="230" rx="12" fill="#0a101b"/><rect x="10" y="10" width="980" height="210" rx="8" fill="none" stroke="#334c65"/><text x="25" y="35" fill="#c4d3e5" font-family="monospace" font-size="15">RED / BLUE SIGNAL PULSE</text><text x="975" y="35" text-anchor="end" fill="#9aabc0" font-family="monospace" font-size="12">DECORATIVE • NOT ACTUAL CONTRIBUTIONS</text><rect x="25" y="62" width="13" height="13" rx="2" fill="#ff5674" opacity="0.5"><animate attributeName="opacity" values=".2;.9;.3" dur="2.0s" repeatCount="indefinite"/></rect><rect x="85" y="62" width="13" height="13" rx="2" fill="#ff5674" opacity="0.5"><animate attributeName="opacity" values=".2;.9;.3" dur="3.5s" repeatCount="indefinite"/></rect><rect x="105" y="62" width="13" height="13" rx="2" fill="#ff5674" opacity="0.8"><animate attributeName="opacity" values=".2;.9;.3" dur="4.0s" repeatCount="indefinite"/></rect><rect x="125" y="62" width="13" height="13" rx="2" fill="#ff5674" opacity="0.3"><animate attributeName="opacity" values=".2;.9;.3" dur="2.0s" repeatCount="indefinite"/></rect><rect x="145" y="62" width="13" height="13" rx="2" fill="#ff5674" opacity="0.3"><animate attributeName="opacity" values=".2;.9;.3" dur="2.5s" repeatCount="indefinite"/></rect><rect x="165" y="62" width="13" height="13" rx="2" fill="#ff5674" opacity="0.5"><animate attributeName="opacity" values=".2;.9;.3" dur="3.0s" repeatCount="indefinite"/></rect><rect x="205" y="62" width="13" height="13" rx="2" fill="#ff5674" opacity="0.15"><animate attributeName="opacity" values=".2;.9;.3" dur="4.0s" repeatCount="indefinite"/></rect><rect x="225" y="62" width="13" height="13" rx="2" fill="#ff5674" opacity="0.3"><animate attributeName="opacity" values=".2;.9;.3" dur="2.0s" repeatCount="indefinite"/></rect><rect x="265" y="62" width="13" height="13" rx="2" fill="#ff5674" opacity="0.5"><animate attributeName="opacity" values=".2;.9;.3" dur="3.0s" repeatCount="indefinite"/></rect><rect x="285" y="62" width="13" height="13" rx="2" fill="#ff5674" opacity="0.15"><animate attributeName="opacity" values=".2;.9;.3" dur="3.5s" repeatCount="indefinite"/></rect><rect x="345" y="62" width="13" height="13" rx="2" fill="#ff5674" opacity="0.3"><animate attributeName="opacity" values=".2;.9;.3" dur="2.5s" repeatCount="indefinite"/></rect><rect x="385" y="62" width="13" height="13" rx="2" fill="#ff5674" opacity="0.8"><animate attributeName="opacity" values=".2;.9;.3" dur="3.5s" repeatCount="indefinite"/></rect><rect x="425" y="62" width="13" height="13" rx="2" fill="#ff5674" opacity="0.3"><animate attributeName="opacity" values=".2;.9;.3" dur="2.0s" repeatCount="indefinite"/></rect><rect x="445" y="62" width="13" height="13" rx="2" fill="#ff5674" opacity="0.3"><animate attributeName="opacity" values=".2;.9;.3" dur="2.5s" repeatCount="indefinite"/></rect><rect x="465" y="62" width="13" height="13" rx="2" fill="#ff5674" opacity="0.15"><animate attributeName="opacity" values=".2;.9;.3" dur="3.0s" repeatCount="indefinite"/></rect><rect x="485" y="62" width="13" height="13" rx="2" fill="#57b6ff" opacity="0.15"><animate attributeName="opacity" values=".2;.9;.3" dur="3.5s" repeatCount="indefinite"/></rect><rect x="505" y="62" width="13" height="13" rx="2" fill="#57b6ff" opacity="0.8"><animate attributeName="opacity" values=".2;.9;.3" dur="4.0s" repeatCount="indefinite"/></rect><rect x="525" y="62" width="13" height="13" rx="2" fill="#57b6ff" opacity="0.8"><animate attributeName="opacity" values=".2;.9;.3" dur="2.0s" repeatCount="indefinite"/></rect><rect x="545" y="62" width="13" height="13" rx="2" fill="#57b6ff" opacity="0.8"><animate attributeName="opacity" values=".2;.9;.3" dur="2.5s" repeatCount="indefinite"/></rect><rect x="565" y="62" width="13" height="13" rx="2" fill="#57b6ff" opacity="0.15"><animate attributeName="opacity" values=".2;.9;.3" dur="3.0s" repeatCount="indefinite"/></rect><rect x="585" y="62" width="13" height="13" rx="2" fill="#57b6ff" opacity="0.5"><animate attributeName="opacity" values=".2;.9;.3" dur="3.5s" repeatCount="indefinite"/></rect><rect x="645" y="62" width="13" height="13" rx="2" fill="#57b6ff" opacity="0.5"><animate attributeName="opacity" values=".2;.9;.3" dur="2.5s" repeatCount="indefinite"/></rect><rect x="725" y="62" width="13" height="13" rx="2" fill="#57b6ff" opacity="0.3"><animate attributeName="opacity" values=".2;.9;.3" dur="2.0s" repeatCount="indefinite"/></rect><rect x="765" y="62" width="13" height="13" rx="2" fill="#57b6ff" opacity="0.8"><animate attributeName="opacity" values=".2;.9;.3" dur="3.0s" repeatCount="indefinite"/></rect><rect x="825" y="62" width="13" height="13" rx="2" fill="#57b6ff" opacity="0.15"><animate attributeName="opacity" values=".2;.9;.3" dur="2.0s" repeatCount="indefinite"/></rect><rect x="845" y="62" width="13" height="13" rx="2" fill="#57b6ff" opacity="0.15"><animate attributeName="opacity" values=".2;.9;.3" dur="2.5s" repeatCount="indefinite"/></rect><rect x="865" y="62" width="13" height="13" rx="2" fill="#57b6ff" opacity="0.3"><animate attributeName="opacity" values=".2;.9;.3" dur="3.0s" repeatCount="indefinite"/></rect><rect x="905" y="62" width="13" height="13" rx="2" fill="#57b6ff" opacity="0.15"><animate attributeName="opacity" values=".2;.9;.3" dur="4.0s" repeatCount="indefinite"/></rect><rect x="925" y="62" width="13" height="13" rx="2" fill="#57b6ff" opacity="0.8"><animate attributeName="opacity" values=".2;.9;.3" dur="2.0s" repeatCount="indefinite"/></rect><rect x="25" y="82" width="13" height="13" rx="2" fill="#ff5674" opacity="0.15"><animate attributeName="opacity" values=".2;.9;.3" dur="2.0s" repeatCount="indefinite"/></rect><rect x="45" y="82" width="13" height="13" rx="2" fill="#ff5674" opacity="0.5"><animate attributeName="opacity" values=".2;.9;.3" dur="2.5s" repeatCount="indefinite"/></rect><rect x="105" y="82" width="13" height="13" rx="2" fill="#ff5674" opacity="0.8"><animate attributeName="opacity" values=".2;.9;.3" dur="4.0s" repeatCount="indefinite"/></rect><rect x="145" y="82" width="13" height="13" rx="2" fill="#ff5674" opacity="0.8"><animate attributeName="opacity" values=".2;.9;.3" dur="2.5s" repeatCount="indefinite"/></rect><rect x="165" y="82" width="13" height="13" rx="2" fill="#ff5674" opacity="0.5"><animate attributeName="opacity" values=".2;.9;.3" dur="3.0s" repeatCount="indefinite"/></rect><rect x="205" y="82" width="13" height="13" rx="2" fill="#ff5674" opacity="0.3"><animate attributeName="opacity" values=".2;.9;.3" dur="4.0s" repeatCount="indefinite"/></rect><rect x="225" y="82" width="13" height="13" rx="2" fill="#ff5674" opacity="0.15"><animate attributeName="opacity" values=".2;.9;.3" dur="2.0s" repeatCount="indefinite"/></rect><rect x="245" y="82" width="13" height="13" rx="2" fill="#ff5674" opacity="0.5"><animate attributeName="opacity" values=".2;.9;.3" dur="2.5s" repeatCount="indefinite"/></rect><rect x="285" y="82" width="13" height="13" rx="2" fill="#ff5674" opacity="0.15"><animate attributeName="opacity" values=".2;.9;.3" dur="3.5s" repeatCount="indefinite"/></rect><rect x="365" y="82" width="13" height="13" rx="2" fill="#ff5674" opacity="0.3"><animate attributeName="opacity" values=".2;.9;.3" dur="3.0s" repeatCount="indefinite"/></rect><rect x="425" y="82" width="13" height="13" rx="2" fill="#ff5674" opacity="0.5"><animate attributeName="opacity" values=".2;.9;.3" dur="2.0s" repeatCount="indefinite"/></rect><rect x="445" y="82" width="13" height="13" rx="2" fill="#ff5674" opacity="0.3"><animate attributeName="opacity" values=".2;.9;.3" dur="2.5s" repeatCount="indefinite"/></rect><rect x="465" y="82" width="13" height="13" rx="2" fill="#ff5674" opacity="0.8"><animate attributeName="opacity" values=".2;.9;.3" dur="3.0s" repeatCount="indefinite"/></rect><rect x="485" y="82" width="13" height="13" rx="2" fill="#57b6ff" opacity="0.5"><animate attributeName="opacity" values=".2;.9;.3" dur="3.5s" repeatCount="indefinite"/></rect><rect x="525" y="82" width="13" height="13" rx="2" fill="#57b6ff" opacity="0.3"><animate attributeName="opacity" values=".2;.9;.3" dur="2.0s" repeatCount="indefinite"/></rect><rect x="545" y="82" width="13" height="13" rx="2" fill="#57b6ff" opacity="0.15"><animate attributeName="opacity" values=".2;.9;.3" dur="2.5s" repeatCount="indefinite"/></rect><rect x="585" y="82" width="13" height="13" rx="2" fill="#57b6ff" opacity="0.8"><animate attributeName="opacity" values=".2;.9;.3" dur="3.5s" repeatCount="indefinite"/></rect><rect x="605" y="82" width="13" height="13" rx="2" fill="#57b6ff" opacity="0.3"><animate attributeName="opacity" values=".2;.9;.3" dur="4.0s" repeatCount="indefinite"/></rect><rect x="625" y="82" width="13" height="13" rx="2" fill="#57b6ff" opacity="0.5"><animate attributeName="opacity" values=".2;.9;.3" dur="2.0s" repeatCount="indefinite"/></rect><rect x="705" y="82" width="13" height="13" rx="2" fill="#57b6ff" opacity="0.5"><animate attributeName="opacity" values=".2;.9;.3" dur="4.0s" repeatCount="indefinite"/></rect><rect x="725" y="82" width="13" height="13" rx="2" fill="#57b6ff" opacity="0.3"><animate attributeName="opacity" values=".2;.9;.3" dur="2.0s" repeatCount="indefinite"/></rect><rect x="765" y="82" width="13" height="13" rx="2" fill="#57b6ff" opacity="0.15"><animate attributeName="opacity" values=".2;.9;.3" dur="3.0s" repeatCount="indefinite"/></rect><rect x="785" y="82" width="13" height="13" rx="2" fill="#57b6ff" opacity="0.5"><animate attributeName="opacity" values=".2;.9;.3" dur="3.5s" repeatCount="indefinite"/></rect><rect x="805" y="82" width="13" height="13" rx="2" fill="#57b6ff" opacity="0.8"><animate attributeName="opacity" values=".2;.9;.3" dur="4.0s" repeatCount="indefinite"/></rect><rect x="825" y="82" width="13" height="13" rx="2" fill="#57b6ff" opacity="0.15"><animate attributeName="opacity" values=".2;.9;.3" dur="2.0s" repeatCount="indefinite"/></rect><rect x="845" y="82" width="13" height="13" rx="2" fill="#57b6ff" opacity="0.3"><animate attributeName="opacity" values=".2;.9;.3" dur="2.5s" repeatCount="indefinite"/></rect><rect x="865" y="82" width="13" height="13" rx="2" fill="#57b6ff" opacity="0.5"><animate attributeName="opacity" values=".2;.9;.3" dur="3.0s" repeatCount="indefinite"/></rect><rect x="885" y="82" width="13" height="13" rx="2" fill="#57b6ff" opacity="0.8"><animate attributeName="opacity" values=".2;.9;.3" dur="3.5s" repeatCount="indefinite"/></rect><rect x="905" y="82" width="13" height="13" rx="2" fill="#57b6ff" opacity="0.15"><animate attributeName="opacity" values=".2;.9;.3" dur="4.0s" repeatCount="indefinite"/></rect><rect x="925" y="82" width="13" height="13" rx="2" fill="#57b6ff" opacity="0.3"><animate attributeName="opacity" values=".2;.9;.3" dur="2.0s" repeatCount="indefinite"/></rect><rect x="945" y="82" width="13" height="13" rx="2" fill="#57b6ff" opacity="0.15"><animate attributeName="opacity" values=".2;.9;.3" dur="2.5s" repeatCount="indefinite"/></rect><rect x="25" y="102" width="13" height="13" rx="2" fill="#ff5674" opacity="0.8"><animate attributeName="opacity" values=".2;.9;.3" dur="2.0s" repeatCount="indefinite"/></rect><rect x="45" y="102" width="13" height="13" rx="2" fill="#ff5674" opacity="0.8"><animate attributeName="opacity" values=".2;.9;.3" dur="2.5s" repeatCount="indefinite"/></rect><rect x="65" y="102" width="13" height="13" rx="2" fill="#ff5674" opacity="0.5"><animate attributeName="opacity" values=".2;.9;.3" dur="3.0s" repeatCount="indefinite"/></rect><rect x="125" y="102" width="13" height="13" rx="2" fill="#ff5674" opacity="0.8"><animate attributeName="opacity" values=".2;.9;.3" dur="2.0s" repeatCount="indefinite"/></rect><rect x="145" y="102" width="13" height="13" rx="2" fill="#ff5674" opacity="0.15"><animate attributeName="opacity" values=".2;.9;.3" dur="2.5s" repeatCount="indefinite"/></rect><rect x="185" y="102" width="13" height="13" rx="2" fill="#ff5674" opacity="0.8"><animate attributeName="opacity" values=".2;.9;.3" dur="3.5s" repeatCount="indefinite"/></rect><rect x="205" y="102" width="13" height="13" rx="2" fill="#ff5674" opacity="0.15"><animate attributeName="opacity" values=".2;.9;.3" dur="4.0s" repeatCount="indefinite"/></rect><rect x="225" y="102" width="13" height="13" rx="2" fill="#ff5674" opacity="0.5"><animate attributeName="opacity" values=".2;.9;.3" dur="2.0s" repeatCount="indefinite"/></rect><rect x="285" y="102" width="13" height="13" rx="2" fill="#ff5674" opacity="0.5"><animate attributeName="opacity" values=".2;.9;.3" dur="3.5s" repeatCount="indefinite"/></rect><rect x="345" y="102" width="13" height="13" rx="2" fill="#ff5674" opacity="0.8"><animate attributeName="opacity" values=".2;.9;.3" dur="2.5s" repeatCount="indefinite"/></rect><rect x="405" y="102" width="13" height="13" rx="2" fill="#ff5674" opacity="0.8"><animate attributeName="opacity" values=".2;.9;.3" dur="4.0s" repeatCount="indefinite"/></rect><rect x="425" y="102" width="13" height="13" rx="2" fill="#ff5674" opacity="0.15"><animate attributeName="opacity" values=".2;.9;.3" dur="2.0s" repeatCount="indefinite"/></rect><rect x="445" y="102" width="13" height="13" rx="2" fill="#ff5674" opacity="0.5"><animate attributeName="opacity" values=".2;.9;.3" dur="2.5s" repeatCount="indefinite"/></rect><rect x="465" y="102" width="13" height="13" rx="2" fill="#ff5674" opacity="0.5"><animate attributeName="opacity" values=".2;.9;.3" dur="3.0s" repeatCount="indefinite"/></rect><rect x="525" y="102" width="13" height="13" rx="2" fill="#57b6ff" opacity="0.5"><animate attributeName="opacity" values=".2;.9;.3" dur="2.0s" repeatCount="indefinite"/></rect><rect x="585" y="102" width="13" height="13" rx="2" fill="#57b6ff" opacity="0.3"><animate attributeName="opacity" values=".2;.9;.3" dur="3.5s" repeatCount="indefinite"/></rect><rect x="605" y="102" width="13" height="13" rx="2" fill="#57b6ff" opacity="0.3"><animate attributeName="opacity" values=".2;.9;.3" dur="4.0s" repeatCount="indefinite"/></rect><rect x="625" y="102" width="13" height="13" rx="2" fill="#57b6ff" opacity="0.5"><animate attributeName="opacity" values=".2;.9;.3" dur="2.0s" repeatCount="indefinite"/></rect><rect x="665" y="102" width="13" height="13" rx="2" fill="#57b6ff" opacity="0.3"><animate attributeName="opacity" values=".2;.9;.3" dur="3.0s" repeatCount="indefinite"/></rect><rect x="685" y="102" width="13" height="13" rx="2" fill="#57b6ff" opacity="0.15"><animate attributeName="opacity" values=".2;.9;.3" dur="3.5s" repeatCount="indefinite"/></rect><rect x="705" y="102" width="13" height="13" rx="2" fill="#57b6ff" opacity="0.3"><animate attributeName="opacity" values=".2;.9;.3" dur="4.0s" repeatCount="indefinite"/></rect><rect x="725" y="102" width="13" height="13" rx="2" fill="#57b6ff" opacity="0.8"><animate attributeName="opacity" values=".2;.9;.3" dur="2.0s" repeatCount="indefinite"/></rect><rect x="745" y="102" width="13" height="13" rx="2" fill="#57b6ff" opacity="0.8"><animate attributeName="opacity" values=".2;.9;.3" dur="2.5s" repeatCount="indefinite"/></rect><rect x="765" y="102" width="13" height="13" rx="2" fill="#57b6ff" opacity="0.15"><animate attributeName="opacity" values=".2;.9;.3" dur="3.0s" repeatCount="indefinite"/></rect><rect x="785" y="102" width="13" height="13" rx="2" fill="#57b6ff" opacity="0.5"><animate attributeName="opacity" values=".2;.9;.3" dur="3.5s" repeatCount="indefinite"/></rect><rect x="825" y="102" width="13" height="13" rx="2" fill="#57b6ff" opacity="0.5"><animate attributeName="opacity" values=".2;.9;.3" dur="2.0s" repeatCount="indefinite"/></rect><rect x="845" y="102" width="13" height="13" rx="2" fill="#57b6ff" opacity="0.5"><animate attributeName="opacity" values=".2;.9;.3" dur="2.5s" repeatCount="indefinite"/></rect><rect x="865" y="102" width="13" height="13" rx="2" fill="#57b6ff" opacity="0.3"><animate attributeName="opacity" values=".2;.9;.3" dur="3.0s" repeatCount="indefinite"/></rect><rect x="925" y="102" width="13" height="13" rx="2" fill="#57b6ff" opacity="0.5"><animate attributeName="opacity" values=".2;.9;.3" dur="2.0s" repeatCount="indefinite"/></rect><rect x="945" y="102" width="13" height="13" rx="2" fill="#57b6ff" opacity="0.8"><animate attributeName="opacity" values=".2;.9;.3" dur="2.5s" repeatCount="indefinite"/></rect><rect x="25" y="122" width="13" height="13" rx="2" fill="#ff5674" opacity="0.5"><animate attributeName="opacity" values=".2;.9;.3" dur="2.0s" repeatCount="indefinite"/></rect><rect x="45" y="122" width="13" height="13" rx="2" fill="#ff5674" opacity="0.5"><animate attributeName="opacity" values=".2;.9;.3" dur="2.5s" repeatCount="indefinite"/></rect><rect x="65" y="122" width="13" height="13" rx="2" fill="#ff5674" opacity="0.5"><animate attributeName="opacity" values=".2;.9;.3" dur="3.0s" repeatCount="indefinite"/></rect><rect x="145" y="122" width="13" height="13" rx="2" fill="#ff5674" opacity="0.8"><animate attributeName="opacity" values=".2;.9;.3" dur="2.5s" repeatCount="indefinite"/></rect><rect x="165" y="122" width="13" height="13" rx="2" fill="#ff5674" opacity="0.5"><animate attributeName="opacity" values=".2;.9;.3" dur="3.0s" repeatCount="indefinite"/></rect><rect x="205" y="122" width="13" height="13" rx="2" fill="#ff5674" opacity="0.8"><animate attributeName="opacity" values=".2;.9;.3" dur="4.0s" repeatCount="indefinite"/></rect><rect x="225" y="122" width="13" height="13" rx="2" fill="#ff5674" opacity="0.8"><animate attributeName="opacity" values=".2;.9;.3" dur="2.0s" repeatCount="indefinite"/></rect><rect x="245" y="122" width="13" height="13" rx="2" fill="#ff5674" opacity="0.3"><animate attributeName="opacity" values=".2;.9;.3" dur="2.5s" repeatCount="indefinite"/></rect><rect x="325" y="122" width="13" height="13" rx="2" fill="#ff5674" opacity="0.15"><animate attributeName="opacity" values=".2;.9;.3" dur="2.0s" repeatCount="indefinite"/></rect><rect x="345" y="122" width="13" height="13" rx="2" fill="#ff5674" opacity="0.5"><animate attributeName="opacity" values=".2;.9;.3" dur="2.5s" repeatCount="indefinite"/></rect><rect x="365" y="122" width="13" height="13" rx="2" fill="#ff5674" opacity="0.5"><animate attributeName="opacity" values=".2;.9;.3" dur="3.0s" repeatCount="indefinite"/></rect><rect x="385" y="122" width="13" height="13" rx="2" fill="#ff5674" opacity="0.5"><animate attributeName="opacity" values=".2;.9;.3" dur="3.5s" repeatCount="indefinite"/></rect><rect x="405" y="122" width="13" height="13" rx="2" fill="#ff5674" opacity="0.3"><animate attributeName="opacity" values=".2;.9;.3" dur="4.0s" repeatCount="indefinite"/></rect><rect x="425" y="122" width="13" height="13" rx="2" fill="#ff5674" opacity="0.15"><animate attributeName="opacity" values=".2;.9;.3" dur="2.0s" repeatCount="indefinite"/></rect><rect x="445" y="122" width="13" height="13" rx="2" fill="#ff5674" opacity="0.15"><animate attributeName="opacity" values=".2;.9;.3" dur="2.5s" repeatCount="indefinite"/></rect><rect x="525" y="122" width="13" height="13" rx="2" fill="#57b6ff" opacity="0.5"><animate attributeName="opacity" values=".2;.9;.3" dur="2.0s" repeatCount="indefinite"/></rect><rect x="545" y="122" width="13" height="13" rx="2" fill="#57b6ff" opacity="0.3"><animate attributeName="opacity" values=".2;.9;.3" dur="2.5s" repeatCount="indefinite"/></rect><rect x="565" y="122" width="13" height="13" rx="2" fill="#57b6ff" opacity="0.15"><animate attributeName="opacity" values=".2;.9;.3" dur="3.0s" repeatCount="indefinite"/></rect><rect x="585" y="122" width="13" height="13" rx="2" fill="#57b6ff" opacity="0.15"><animate attributeName="opacity" values=".2;.9;.3" dur="3.5s" repeatCount="indefinite"/></rect><rect x="625" y="122" width="13" height="13" rx="2" fill="#57b6ff" opacity="0.3"><animate attributeName="opacity" values=".2;.9;.3" dur="2.0s" repeatCount="indefinite"/></rect><rect x="645" y="122" width="13" height="13" rx="2" fill="#57b6ff" opacity="0.15"><animate attributeName="opacity" values=".2;.9;.3" dur="2.5s" repeatCount="indefinite"/></rect><rect x="665" y="122" width="13" height="13" rx="2" fill="#57b6ff" opacity="0.8"><animate attributeName="opacity" values=".2;.9;.3" dur="3.0s" repeatCount="indefinite"/></rect><rect x="685" y="122" width="13" height="13" rx="2" fill="#57b6ff" opacity="0.5"><animate attributeName="opacity" values=".2;.9;.3" dur="3.5s" repeatCount="indefinite"/></rect><rect x="705" y="122" width="13" height="13" rx="2" fill="#57b6ff" opacity="0.8"><animate attributeName="opacity" values=".2;.9;.3" dur="4.0s" repeatCount="indefinite"/></rect><rect x="725" y="122" width="13" height="13" rx="2" fill="#57b6ff" opacity="0.15"><animate attributeName="opacity" values=".2;.9;.3" dur="2.0s" repeatCount="indefinite"/></rect><rect x="745" y="122" width="13" height="13" rx="2" fill="#57b6ff" opacity="0.5"><animate attributeName="opacity" values=".2;.9;.3" dur="2.5s" repeatCount="indefinite"/></rect><rect x="805" y="122" width="13" height="13" rx="2" fill="#57b6ff" opacity="0.5"><animate attributeName="opacity" values=".2;.9;.3" dur="4.0s" repeatCount="indefinite"/></rect><rect x="825" y="122" width="13" height="13" rx="2" fill="#57b6ff" opacity="0.8"><animate attributeName="opacity" values=".2;.9;.3" dur="2.0s" repeatCount="indefinite"/></rect><rect x="845" y="122" width="13" height="13" rx="2" fill="#57b6ff" opacity="0.5"><animate attributeName="opacity" values=".2;.9;.3" dur="2.5s" repeatCount="indefinite"/></rect><rect x="865" y="122" width="13" height="13" rx="2" fill="#57b6ff" opacity="0.3"><animate attributeName="opacity" values=".2;.9;.3" dur="3.0s" repeatCount="indefinite"/></rect><rect x="925" y="122" width="13" height="13" rx="2" fill="#57b6ff" opacity="0.15"><animate attributeName="opacity" values=".2;.9;.3" dur="2.0s" repeatCount="indefinite"/></rect><rect x="945" y="122" width="13" height="13" rx="2" fill="#57b6ff" opacity="0.3"><animate attributeName="opacity" values=".2;.9;.3" dur="2.5s" repeatCount="indefinite"/></rect><rect x="45" y="142" width="13" height="13" rx="2" fill="#ff5674" opacity="0.15"><animate attributeName="opacity" values=".2;.9;.3" dur="2.5s" repeatCount="indefinite"/></rect><rect x="65" y="142" width="13" height="13" rx="2" fill="#ff5674" opacity="0.8"><animate attributeName="opacity" values=".2;.9;.3" dur="3.0s" repeatCount="indefinite"/></rect><rect x="85" y="142" width="13" height="13" rx="2" fill="#ff5674" opacity="0.8"><animate attributeName="opacity" values=".2;.9;.3" dur="3.5s" repeatCount="indefinite"/></rect><rect x="105" y="142" width="13" height="13" rx="2" fill="#ff5674" opacity="0.8"><animate attributeName="opacity" values=".2;.9;.3" dur="4.0s" repeatCount="indefinite"/></rect><rect x="125" y="142" width="13" height="13" rx="2" fill="#ff5674" opacity="0.5"><animate attributeName="opacity" values=".2;.9;.3" dur="2.0s" repeatCount="indefinite"/></rect><rect x="145" y="142" width="13" height="13" rx="2" fill="#ff5674" opacity="0.8"><animate attributeName="opacity" values=".2;.9;.3" dur="2.5s" repeatCount="indefinite"/></rect><rect x="185" y="142" width="13" height="13" rx="2" fill="#ff5674" opacity="0.15"><animate attributeName="opacity" values=".2;.9;.3" dur="3.5s" repeatCount="indefinite"/></rect><rect x="205" y="142" width="13" height="13" rx="2" fill="#ff5674" opacity="0.5"><animate attributeName="opacity" values=".2;.9;.3" dur="4.0s" repeatCount="indefinite"/></rect><rect x="265" y="142" width="13" height="13" rx="2" fill="#ff5674" opacity="0.3"><animate attributeName="opacity" values=".2;.9;.3" dur="3.0s" repeatCount="indefinite"/></rect><rect x="285" y="142" width="13" height="13" rx="2" fill="#ff5674" opacity="0.15"><animate attributeName="opacity" values=".2;.9;.3" dur="3.5s" repeatCount="indefinite"/></rect><rect x="345" y="142" width="13" height="13" rx="2" fill="#ff5674" opacity="0.5"><animate attributeName="opacity" values=".2;.9;.3" dur="2.5s" repeatCount="indefinite"/></rect><rect x="365" y="142" width="13" height="13" rx="2" fill="#ff5674" opacity="0.5"><animate attributeName="opacity" values=".2;.9;.3" dur="3.0s" repeatCount="indefinite"/></rect><rect x="405" y="142" width="13" height="13" rx="2" fill="#ff5674" opacity="0.8"><animate attributeName="opacity" values=".2;.9;.3" dur="4.0s" repeatCount="indefinite"/></rect><rect x="445" y="142" width="13" height="13" rx="2" fill="#ff5674" opacity="0.5"><animate attributeName="opacity" values=".2;.9;.3" dur="2.5s" repeatCount="indefinite"/></rect><rect x="525" y="142" width="13" height="13" rx="2" fill="#57b6ff" opacity="0.8"><animate attributeName="opacity" values=".2;.9;.3" dur="2.0s" repeatCount="indefinite"/></rect><rect x="545" y="142" width="13" height="13" rx="2" fill="#57b6ff" opacity="0.5"><animate attributeName="opacity" values=".2;.9;.3" dur="2.5s" repeatCount="indefinite"/></rect><rect x="585" y="142" width="13" height="13" rx="2" fill="#57b6ff" opacity="0.15"><animate attributeName="opacity" values=".2;.9;.3" dur="3.5s" repeatCount="indefinite"/></rect><rect x="605" y="142" width="13" height="13" rx="2" fill="#57b6ff" opacity="0.8"><animate attributeName="opacity" values=".2;.9;.3" dur="4.0s" repeatCount="indefinite"/></rect><rect x="645" y="142" width="13" height="13" rx="2" fill="#57b6ff" opacity="0.5"><animate attributeName="opacity" values=".2;.9;.3" dur="2.5s" repeatCount="indefinite"/></rect><rect x="665" y="142" width="13" height="13" rx="2" fill="#57b6ff" opacity="0.5"><animate attributeName="opacity" values=".2;.9;.3" dur="3.0s" repeatCount="indefinite"/></rect><rect x="685" y="142" width="13" height="13" rx="2" fill="#57b6ff" opacity="0.5"><animate attributeName="opacity" values=".2;.9;.3" dur="3.5s" repeatCount="indefinite"/></rect><rect x="705" y="142" width="13" height="13" rx="2" fill="#57b6ff" opacity="0.8"><animate attributeName="opacity" values=".2;.9;.3" dur="4.0s" repeatCount="indefinite"/></rect><rect x="745" y="142" width="13" height="13" rx="2" fill="#57b6ff" opacity="0.3"><animate attributeName="opacity" values=".2;.9;.3" dur="2.5s" repeatCount="indefinite"/></rect><rect x="765" y="142" width="13" height="13" rx="2" fill="#57b6ff" opacity="0.5"><animate attributeName="opacity" values=".2;.9;.3" dur="3.0s" repeatCount="indefinite"/></rect><rect x="785" y="142" width="13" height="13" rx="2" fill="#57b6ff" opacity="0.3"><animate attributeName="opacity" values=".2;.9;.3" dur="3.5s" repeatCount="indefinite"/></rect><rect x="845" y="142" width="13" height="13" rx="2" fill="#57b6ff" opacity="0.8"><animate attributeName="opacity" values=".2;.9;.3" dur="2.5s" repeatCount="indefinite"/></rect><rect x="905" y="142" width="13" height="13" rx="2" fill="#57b6ff" opacity="0.15"><animate attributeName="opacity" values=".2;.9;.3" dur="4.0s" repeatCount="indefinite"/></rect><rect x="925" y="142" width="13" height="13" rx="2" fill="#57b6ff" opacity="0.3"><animate attributeName="opacity" values=".2;.9;.3" dur="2.0s" repeatCount="indefinite"/></rect><rect x="945" y="142" width="13" height="13" rx="2" fill="#57b6ff" opacity="0.15"><animate attributeName="opacity" values=".2;.9;.3" dur="2.5s" repeatCount="indefinite"/></rect><rect x="25" y="162" width="13" height="13" rx="2" fill="#ff5674" opacity="0.3"><animate attributeName="opacity" values=".2;.9;.3" dur="2.0s" repeatCount="indefinite"/></rect><rect x="45" y="162" width="13" height="13" rx="2" fill="#ff5674" opacity="0.3"><animate attributeName="opacity" values=".2;.9;.3" dur="2.5s" repeatCount="indefinite"/></rect><rect x="85" y="162" width="13" height="13" rx="2" fill="#ff5674" opacity="0.3"><animate attributeName="opacity" values=".2;.9;.3" dur="3.5s" repeatCount="indefinite"/></rect><rect x="205" y="162" width="13" height="13" rx="2" fill="#ff5674" opacity="0.5"><animate attributeName="opacity" values=".2;.9;.3" dur="4.0s" repeatCount="indefinite"/></rect><rect x="225" y="162" width="13" height="13" rx="2" fill="#ff5674" opacity="0.8"><animate attributeName="opacity" values=".2;.9;.3" dur="2.0s" repeatCount="indefinite"/></rect><rect x="245" y="162" width="13" height="13" rx="2" fill="#ff5674" opacity="0.8"><animate attributeName="opacity" values=".2;.9;.3" dur="2.5s" repeatCount="indefinite"/></rect><rect x="265" y="162" width="13" height="13" rx="2" fill="#ff5674" opacity="0.5"><animate attributeName="opacity" values=".2;.9;.3" dur="3.0s" repeatCount="indefinite"/></rect><rect x="285" y="162" width="13" height="13" rx="2" fill="#ff5674" opacity="0.3"><animate attributeName="opacity" values=".2;.9;.3" dur="3.5s" repeatCount="indefinite"/></rect><rect x="325" y="162" width="13" height="13" rx="2" fill="#ff5674" opacity="0.8"><animate attributeName="opacity" values=".2;.9;.3" dur="2.0s" repeatCount="indefinite"/></rect><rect x="345" y="162" width="13" height="13" rx="2" fill="#ff5674" opacity="0.5"><animate attributeName="opacity" values=".2;.9;.3" dur="2.5s" repeatCount="indefinite"/></rect><rect x="425" y="162" width="13" height="13" rx="2" fill="#ff5674" opacity="0.5"><animate attributeName="opacity" values=".2;.9;.3" dur="2.0s" repeatCount="indefinite"/></rect><rect x="445" y="162" width="13" height="13" rx="2" fill="#ff5674" opacity="0.5"><animate attributeName="opacity" values=".2;.9;.3" dur="2.5s" repeatCount="indefinite"/></rect><rect x="465" y="162" width="13" height="13" rx="2" fill="#ff5674" opacity="0.3"><animate attributeName="opacity" values=".2;.9;.3" dur="3.0s" repeatCount="indefinite"/></rect><rect x="485" y="162" width="13" height="13" rx="2" fill="#57b6ff" opacity="0.8"><animate attributeName="opacity" values=".2;.9;.3" dur="3.5s" repeatCount="indefinite"/></rect><rect x="505" y="162" width="13" height="13" rx="2" fill="#57b6ff" opacity="0.3"><animate attributeName="opacity" values=".2;.9;.3" dur="4.0s" repeatCount="indefinite"/></rect><rect x="545" y="162" width="13" height="13" rx="2" fill="#57b6ff" opacity="0.15"><animate attributeName="opacity" values=".2;.9;.3" dur="2.5s" repeatCount="indefinite"/></rect><rect x="585" y="162" width="13" height="13" rx="2" fill="#57b6ff" opacity="0.5"><animate attributeName="opacity" values=".2;.9;.3" dur="3.5s" repeatCount="indefinite"/></rect><rect x="645" y="162" width="13" height="13" rx="2" fill="#57b6ff" opacity="0.8"><animate attributeName="opacity" values=".2;.9;.3" dur="2.5s" repeatCount="indefinite"/></rect><rect x="665" y="162" width="13" height="13" rx="2" fill="#57b6ff" opacity="0.5"><animate attributeName="opacity" values=".2;.9;.3" dur="3.0s" repeatCount="indefinite"/></rect><rect x="685" y="162" width="13" height="13" rx="2" fill="#57b6ff" opacity="0.3"><animate attributeName="opacity" values=".2;.9;.3" dur="3.5s" repeatCount="indefinite"/></rect><rect x="745" y="162" width="13" height="13" rx="2" fill="#57b6ff" opacity="0.5"><animate attributeName="opacity" values=".2;.9;.3" dur="2.5s" repeatCount="indefinite"/></rect><rect x="765" y="162" width="13" height="13" rx="2" fill="#57b6ff" opacity="0.5"><animate attributeName="opacity" values=".2;.9;.3" dur="3.0s" repeatCount="indefinite"/></rect><rect x="785" y="162" width="13" height="13" rx="2" fill="#57b6ff" opacity="0.3"><animate attributeName="opacity" values=".2;.9;.3" dur="3.5s" repeatCount="indefinite"/></rect><rect x="805" y="162" width="13" height="13" rx="2" fill="#57b6ff" opacity="0.15"><animate attributeName="opacity" values=".2;.9;.3" dur="4.0s" repeatCount="indefinite"/></rect><rect x="825" y="162" width="13" height="13" rx="2" fill="#57b6ff" opacity="0.5"><animate attributeName="opacity" values=".2;.9;.3" dur="2.0s" repeatCount="indefinite"/></rect><rect x="865" y="162" width="13" height="13" rx="2" fill="#57b6ff" opacity="0.8"><animate attributeName="opacity" values=".2;.9;.3" dur="3.0s" repeatCount="indefinite"/></rect><rect x="905" y="162" width="13" height="13" rx="2" fill="#57b6ff" opacity="0.3"><animate attributeName="opacity" values=".2;.9;.3" dur="4.0s" repeatCount="indefinite"/></rect><rect x="925" y="162" width="13" height="13" rx="2" fill="#57b6ff" opacity="0.15"><animate attributeName="opacity" values=".2;.9;.3" dur="2.0s" repeatCount="indefinite"/></rect><rect x="945" y="162" width="13" height="13" rx="2" fill="#57b6ff" opacity="0.15"><animate attributeName="opacity" values=".2;.9;.3" dur="2.5s" repeatCount="indefinite"/></rect><rect x="25" y="182" width="13" height="13" rx="2" fill="#ff5674" opacity="0.8"><animate attributeName="opacity" values=".2;.9;.3" dur="2.0s" repeatCount="indefinite"/></rect><rect x="65" y="182" width="13" height="13" rx="2" fill="#ff5674" opacity="0.15"><animate attributeName="opacity" values=".2;.9;.3" dur="3.0s" repeatCount="indefinite"/></rect><rect x="85" y="182" width="13" height="13" rx="2" fill="#ff5674" opacity="0.8"><animate attributeName="opacity" values=".2;.9;.3" dur="3.5s" repeatCount="indefinite"/></rect><rect x="105" y="182" width="13" height="13" rx="2" fill="#ff5674" opacity="0.8"><animate attributeName="opacity" values=".2;.9;.3" dur="4.0s" repeatCount="indefinite"/></rect><rect x="125" y="182" width="13" height="13" rx="2" fill="#ff5674" opacity="0.5"><animate attributeName="opacity" values=".2;.9;.3" dur="2.0s" repeatCount="indefinite"/></rect><rect x="145" y="182" width="13" height="13" rx="2" fill="#ff5674" opacity="0.3"><animate attributeName="opacity" values=".2;.9;.3" dur="2.5s" repeatCount="indefinite"/></rect><rect x="185" y="182" width="13" height="13" rx="2" fill="#ff5674" opacity="0.5"><animate attributeName="opacity" values=".2;.9;.3" dur="3.5s" repeatCount="indefinite"/></rect><rect x="205" y="182" width="13" height="13" rx="2" fill="#ff5674" opacity="0.3"><animate attributeName="opacity" values=".2;.9;.3" dur="4.0s" repeatCount="indefinite"/></rect><rect x="265" y="182" width="13" height="13" rx="2" fill="#ff5674" opacity="0.8"><animate attributeName="opacity" values=".2;.9;.3" dur="3.0s" repeatCount="indefinite"/></rect><rect x="285" y="182" width="13" height="13" rx="2" fill="#ff5674" opacity="0.15"><animate attributeName="opacity" values=".2;.9;.3" dur="3.5s" repeatCount="indefinite"/></rect><rect x="305" y="182" width="13" height="13" rx="2" fill="#ff5674" opacity="0.5"><animate attributeName="opacity" values=".2;.9;.3" dur="4.0s" repeatCount="indefinite"/></rect><rect x="325" y="182" width="13" height="13" rx="2" fill="#ff5674" opacity="0.5"><animate attributeName="opacity" values=".2;.9;.3" dur="2.0s" repeatCount="indefinite"/></rect><rect x="405" y="182" width="13" height="13" rx="2" fill="#ff5674" opacity="0.3"><animate attributeName="opacity" values=".2;.9;.3" dur="4.0s" repeatCount="indefinite"/></rect><rect x="465" y="182" width="13" height="13" rx="2" fill="#ff5674" opacity="0.3"><animate attributeName="opacity" values=".2;.9;.3" dur="3.0s" repeatCount="indefinite"/></rect><rect x="505" y="182" width="13" height="13" rx="2" fill="#57b6ff" opacity="0.5"><animate attributeName="opacity" values=".2;.9;.3" dur="4.0s" repeatCount="indefinite"/></rect><rect x="525" y="182" width="13" height="13" rx="2" fill="#57b6ff" opacity="0.3"><animate attributeName="opacity" values=".2;.9;.3" dur="2.0s" repeatCount="indefinite"/></rect><rect x="545" y="182" width="13" height="13" rx="2" fill="#57b6ff" opacity="0.15"><animate attributeName="opacity" values=".2;.9;.3" dur="2.5s" repeatCount="indefinite"/></rect><rect x="565" y="182" width="13" height="13" rx="2" fill="#57b6ff" opacity="0.5"><animate attributeName="opacity" values=".2;.9;.3" dur="3.0s" repeatCount="indefinite"/></rect><rect x="585" y="182" width="13" height="13" rx="2" fill="#57b6ff" opacity="0.8"><animate attributeName="opacity" values=".2;.9;.3" dur="3.5s" repeatCount="indefinite"/></rect><rect x="605" y="182" width="13" height="13" rx="2" fill="#57b6ff" opacity="0.3"><animate attributeName="opacity" values=".2;.9;.3" dur="4.0s" repeatCount="indefinite"/></rect><rect x="625" y="182" width="13" height="13" rx="2" fill="#57b6ff" opacity="0.15"><animate attributeName="opacity" values=".2;.9;.3" dur="2.0s" repeatCount="indefinite"/></rect><rect x="665" y="182" width="13" height="13" rx="2" fill="#57b6ff" opacity="0.8"><animate attributeName="opacity" values=".2;.9;.3" dur="3.0s" repeatCount="indefinite"/></rect><rect x="705" y="182" width="13" height="13" rx="2" fill="#57b6ff" opacity="0.5"><animate attributeName="opacity" values=".2;.9;.3" dur="4.0s" repeatCount="indefinite"/></rect><rect x="765" y="182" width="13" height="13" rx="2" fill="#57b6ff" opacity="0.8"><animate attributeName="opacity" values=".2;.9;.3" dur="3.0s" repeatCount="indefinite"/></rect><rect x="845" y="182" width="13" height="13" rx="2" fill="#57b6ff" opacity="0.15"><animate attributeName="opacity" values=".2;.9;.3" dur="2.5s" repeatCount="indefinite"/></rect><rect x="885" y="182" width="13" height="13" rx="2" fill="#57b6ff" opacity="0.5"><animate attributeName="opacity" values=".2;.9;.3" dur="3.5s" repeatCount="indefinite"/></rect><rect x="925" y="182" width="13" height="13" rx="2" fill="#57b6ff" opacity="0.5"><animate attributeName="opacity" values=".2;.9;.3" dur="2.0s" repeatCount="indefinite"/></rect></svg>